<?xml version="1.0" encoding="UTF-8" standalone="no"?>
<!-- Created with Inkscape (http://www.inkscape.org/) -->

<svg
   width="128mm"
   height="128mm"
   viewBox="0 0 128 128"
   version="1.1"
   id="svg1"
   inkscape:version="1.4.2 (ebf0e940d0, 2025-05-08)"
   sodipodi:docname="com.jeffser.Pigment.svg"
   inkscape:export-filename="com.jeffser.Pigment.png"
   inkscape:export-xdpi="101.6"
   inkscape:export-ydpi="101.6"
   xmlns:inkscape="http://www.inkscape.org/namespaces/inkscape"
   xmlns:sodipodi="http://sodipodi.sourceforge.net/DTD/sodipodi-0.dtd"
   xmlns:xlink="http://www.w3.org/1999/xlink"
   xmlns="http://www.w3.org/2000/svg"
   xmlns:svg="http://www.w3.org/2000/svg">
  <sodipodi:namedview
     id="namedview1"
     pagecolor="#ffffff"
     bordercolor="#000000"
     borderopacity="0.25"
     inkscape:showpageshadow="2"
     inkscape:pageopacity="0.0"
     inkscape:pagecheckerboard="0"
     inkscape:deskcolor="#d1d1d1"
     inkscape:document-units="mm"
     inkscape:zoom="1.0333895"
     inkscape:cx="396.75263"
     inkscape:cy="374.01193"
     inkscape:window-width="1078"
     inkscape:window-height="1190"
     inkscape:window-x="26"
     inkscape:window-y="23"
     inkscape:window-maximized="0"
     inkscape:current-layer="layer4" />
  <defs
     id="defs1">
    <linearGradient
       inkscape:collect="always"
       xlink:href="#linearGradient735"
       id="linearGradient736"
       x1="64.044121"
       y1="197.95587"
       x2="64.044121"
       y2="288.04413"
       gradientUnits="userSpaceOnUse" />
    <linearGradient
       id="linearGradient735"
       inkscape:collect="always">
      <stop
         style="stop-color:#2190a4;stop-opacity:1;"
         offset="0.25000006"
         id="stop735" />
      <stop
         style="stop-color:#2190a4;stop-opacity:0;"
         offset="1"
         id="stop736" />
    </linearGradient>
    <linearGradient
       inkscape:collect="always"
       xlink:href="#linearGradient733"
       id="linearGradient734"
       x1="64.044128"
       y1="204.45587"
       x2="64.044128"
       y2="294.54413"
       gradientUnits="userSpaceOnUse" />
    <linearGradient
       id="linearGradient733"
       inkscape:collect="always">
      <stop
         style="stop-color:#3a944a;stop-opacity:1;"
         offset="0.25"
         id="stop733" />
      <stop
         style="stop-color:#3a944a;stop-opacity:0;"
         offset="1"
         id="stop734" />
    </linearGradient>
    <linearGradient
       inkscape:collect="always"
       xlink:href="#linearGradient731"
       id="linearGradient732"
       x1="64.044128"
       y1="210.95587"
       x2="64.044128"
       y2="301.04413"
       gradientUnits="userSpaceOnUse" />
    <linearGradient
       id="linearGradient731"
       inkscape:collect="always">
      <stop
         style="stop-color:#c88800;stop-opacity:1;"
         offset="0.25"
         id="stop731" />
      <stop
         style="stop-color:#c88800;stop-opacity:0;"
         offset="1"
         id="stop732" />
    </linearGradient>
    <linearGradient
       inkscape:collect="always"
       xlink:href="#linearGradient729"
       id="linearGradient730"
       x1="64.044128"
       y1="217.27844"
       x2="64.044128"
       y2="307.3667"
       gradientUnits="userSpaceOnUse" />
    <linearGradient
       id="linearGradient729"
       inkscape:collect="always">
      <stop
         style="stop-color:#ed5b00;stop-opacity:1;"
         offset="0.25"
         id="stop729" />
      <stop
         style="stop-color:#ed5b00;stop-opacity:0;"
         offset="1"
         id="stop730" />
    </linearGradient>
    <linearGradient
       inkscape:collect="always"
       xlink:href="#linearGradient727"
       id="linearGradient728"
       x1="64.044128"
       y1="221.3291"
       x2="64.044128"
       y2="311.41736"
       gradientUnits="userSpaceOnUse" />
    <linearGradient
       id="linearGradient727"
       inkscape:collect="always">
      <stop
         style="stop-color:#e62d42;stop-opacity:1;"
         offset="0.25"
         id="stop727" />
      <stop
         style="stop-color:#e62d42;stop-opacity:0;"
         offset="1"
         id="stop728" />
    </linearGradient>
    <linearGradient
       inkscape:collect="always"
       xlink:href="#linearGradient725"
       id="linearGradient726"
       x1="64.044128"
       y1="223.59515"
       x2="64.044128"
       y2="313.68341"
       gradientUnits="userSpaceOnUse" />
    <linearGradient
       id="linearGradient725"
       inkscape:collect="always">
      <stop
         style="stop-color:#d56199;stop-opacity:1;"
         offset="0.24514553"
         id="stop725" />
      <stop
         style="stop-color:#d56199;stop-opacity:0;"
         offset="1"
         id="stop726" />
    </linearGradient>
    <linearGradient
       inkscape:collect="always"
       xlink:href="#linearGradient723"
       id="linearGradient724"
       x1="64.044128"
       y1="225.01004"
       x2="64.044128"
       y2="315.0983"
       gradientUnits="userSpaceOnUse" />
    <linearGradient
       id="linearGradient723"
       inkscape:collect="always">
      <stop
         style="stop-color:#9141ac;stop-opacity:1;"
         offset="0.24841276"
         id="stop723" />
      <stop
         style="stop-color:#9141ac;stop-opacity:0;"
         offset="1"
         id="stop724" />
    </linearGradient>
    <linearGradient
       inkscape:collect="always"
       xlink:href="#linearGradient721"
       id="linearGradient722"
       x1="64.044128"
       y1="225.97217"
       x2="64.044128"
       y2="316.06042"
       gradientUnits="userSpaceOnUse"
       gradientTransform="matrix(1,0,0,1.020666,0,-5.0845125)" />
    <linearGradient
       id="linearGradient721"
       inkscape:collect="always">
      <stop
         style="stop-color:#6f8396;stop-opacity:1;"
         offset="0"
         id="stop721" />
      <stop
         style="stop-color:#221e2f;stop-opacity:1;"
         offset="0.73585916"
         id="stop722" />
    </linearGradient>
  </defs>
  <g
     inkscape:label="Layer 1"
     inkscape:groupmode="layer"
     id="layer1">
    <g
       inkscape:groupmode="layer"
       id="layer4"
       inkscape:label="main icon"
       style="display:inline;enable-background:new"
       transform="matrix(0.99999718,0,0,1,5.4752068e-5,-172)">
      <path
         id="rect1"
         style="fill:#3584e4;fill-opacity:1;stroke:none;stroke-width:1.18003;stroke-opacity:1"
         d="m 64.044175,177 c 7.987564,0 48.865525,46.47946 44.754415,78.98625 C 105.81769,279.55647 82.021957,296 64.044167,296 46.066379,296 22.270655,279.55647 19.289751,255.98625 15.178651,223.47945 56.042827,177 64.044175,177 Z"
         sodipodi:nodetypes="sssss" />
      <path
         id="rect1-0"
         style="display:inline;fill:url(#linearGradient736);fill-opacity:1;stroke:none;stroke-width:1.18003;stroke-opacity:1;enable-background:new"
         d="m 64.044,190 c 7.98757,0 48.8657,33.47946 44.75459,65.98625 C 105.81769,279.55647 82.021954,296 64.044164,296 46.066384,296 22.270655,279.55647 19.289751,255.98625 15.178651,223.47945 56.04265,190 64.044,190 Z"
         sodipodi:nodetypes="sssss" />
      <path
         id="rect1-06"
         style="display:inline;fill:url(#linearGradient734);fill-opacity:1;stroke:none;stroke-width:1.18003;stroke-opacity:1;enable-background:new"
         d="m 64.044175,203 c 7.987564,0 48.865525,20.47946 44.754415,52.98625 C 105.81769,279.55647 82.021957,296 64.044167,296 46.066379,296 22.270655,279.55647 19.289751,255.98625 15.178651,223.47945 56.042827,203 64.044175,203 Z"
         sodipodi:nodetypes="sssss" />
      <path
         id="rect1-6"
         style="display:inline;fill:url(#linearGradient732);fill-opacity:1;stroke:none;stroke-width:1.18003;stroke-opacity:1;enable-background:new"
         d="m 64.044175,216 c 7.987564,0 48.865525,7.47946 44.754415,39.98625 C 105.81769,279.55647 82.021957,296 64.044167,296 46.066379,296 22.270655,279.55647 19.289751,255.98625 15.178651,223.47945 56.042827,216 64.044175,216 Z"
         sodipodi:nodetypes="sssss" />
      <path
         id="rect1-8"
         style="display:inline;fill:url(#linearGradient730);fill-opacity:1;stroke:none;stroke-width:1.18003;stroke-opacity:1;enable-background:new"
         d="m 64.04417,229 c 7.98757,0 48.86553,-5.52054 44.75442,26.98625 C 105.81769,279.55647 82.02196,296 64.04417,296 46.066379,296 22.270655,279.55647 19.289751,255.98625 15.178651,223.47945 56.04283,229 64.04417,229 Z"
         sodipodi:nodetypes="sssss" />
      <path
         id="rect1-9"
         style="display:inline;fill:url(#linearGradient728);fill-opacity:1;stroke:none;stroke-width:1.18003;stroke-opacity:1;enable-background:new"
         d="m 64.044175,242 c 7.987564,0 48.865525,-18.52054 44.754415,13.98625 C 105.81769,279.55647 82.021957,296 64.044167,296 46.066379,296 22.270655,279.55647 19.289751,255.98625 15.178651,223.47945 56.042827,242 64.044175,242 Z"
         sodipodi:nodetypes="sssss" />
      <path
         id="rect1-02"
         style="display:inline;fill:url(#linearGradient726);fill-opacity:1;stroke:none;stroke-width:1.18003;stroke-opacity:1;enable-background:new"
         d="m 64.044175,255 c 7.987564,0 48.865525,-31.52054 44.754415,0.98625 C 105.81769,279.55647 82.021957,296 64.044167,296 46.066379,296 22.270655,279.55647 19.289751,255.98625 15.178651,223.47945 56.042827,255 64.044175,255 Z"
         sodipodi:nodetypes="sssss" />
      <path
         id="rect1-7"
         style="display:inline;fill:url(#linearGradient724);fill-opacity:1;stroke:none;stroke-width:1.18003;stroke-opacity:1;enable-background:new"
         d="M 64.044175,268 C 72.031739,268 112.9097,223.47946 108.79859,255.98625 105.81769,279.55647 82.021957,296 64.044167,296 46.066379,296 22.270655,279.55647 19.289751,255.98625 15.178651,223.47945 56.042827,268 64.044175,268 Z"
         sodipodi:nodetypes="sssss" />
      <path
         id="rect1-92"
         style="display:inline;fill:url(#linearGradient722);fill-opacity:1;stroke:none;stroke-width:1.19216;stroke-opacity:1;enable-background:new"
         d="m 64.044175,281.72264 c 7.987564,0 48.865525,-58.70926 44.754415,-25.53069 -2.9809,24.05732 -26.776633,40.84068 -44.754423,40.84068 -17.977788,0 -41.773512,-16.78336 -44.754416,-40.84068 -4.1111,-33.17858 36.753076,25.53069 44.754424,25.53069 z"
         sodipodi:nodetypes="sssss" />
    </g>
  </g>
</svg>
